<?xml version="1.0" encoding="UTF-8" standalone="no"?>
<!-- Created with Inkscape (http://www.inkscape.org/) -->

<svg
   xmlns:dc="http://purl.org/dc/elements/1.1/"
   xmlns:cc="http://creativecommons.org/ns#"
   xmlns:rdf="http://www.w3.org/1999/02/22-rdf-syntax-ns#"
   xmlns:svg="http://www.w3.org/2000/svg"
   xmlns="http://www.w3.org/2000/svg"
   xmlns:sodipodi="http://sodipodi.sourceforge.net/DTD/sodipodi-0.dtd"
   xmlns:inkscape="http://www.inkscape.org/namespaces/inkscape"
   id="svg2"
   version="1.1"
   inkscape:version="0.91 r13725"
   xml:space="preserve"
   width="298.375"
   height="261.97501"
   viewBox="0 0 298.375 261.97501"
   sodipodi:docname="Jtech_logo_final.svg"><metadata
     id="metadata8"><rdf:RDF><cc:Work
         rdf:about=""><dc:format>image/svg+xml</dc:format><dc:type
           rdf:resource="http://purl.org/dc/dcmitype/StillImage" /><dc:title></dc:title></cc:Work></rdf:RDF></metadata><defs
     id="defs6" /><sodipodi:namedview
     pagecolor="#ffffff"
     bordercolor="#666666"
     borderopacity="1"
     objecttolerance="10"
     gridtolerance="10"
     guidetolerance="10"
     inkscape:pageopacity="0"
     inkscape:pageshadow="2"
     inkscape:window-width="1920"
     inkscape:window-height="1056"
     id="namedview4"
     showgrid="false"
     inkscape:zoom="0.9008493"
     inkscape:cx="149.1875"
     inkscape:cy="130.9875"
     inkscape:window-x="1920"
     inkscape:window-y="24"
     inkscape:window-maximized="1"
     inkscape:current-layer="g10" /><g
     id="g10"
     inkscape:groupmode="layer"
     inkscape:label="ink_ext_XXXXXX"
     transform="matrix(1.25,0,0,-1.25,0,261.975)"><g
       id="g12"
       transform="scale(0.1,0.1)"><path
         d="m 483.707,666.211 -1.379,2.621 c -73.711,197.758 -66.551,412.348 20.645,602.868 88.39,194.28 248.375,342.29 451.207,417.62 407.47,144.35 858.66,-66.01 1004.06,-470.09 75.26,-203.94 67.02,-421.14 -22.44,-613.39 -0.68,-1.442 -1.47,-2.828 -2.15,-4.25 l 356.81,0 c 74.82,237.14 69.11,491.73 -19.26,731.52 C 2063.57,1907.7 1421.69,2208.56 840.586,2001.97 552.777,1894.95 325.543,1685.4 200.488,1410.41 132.719,1262.33 98.7031,1105.16 98.7031,946.379 98.7031,830.961 117.418,714.77 154.105,601.59 l 355.883,0 c -9.668,20.992 -18.5,42.519 -26.281,64.621"
         style="fill:#f47216;fill-opacity:1;fill-rule:nonzero;stroke:none"
         id="path14"
         inkscape:connector-curvature="0" /><path
         d="m 1800.77,601.082 -226.51,682.328 143.96,128.5 62.09,127.13 -84.52,136.16 -85.57,115.78 -10.23,78.49 -68.18,58.75 -45.78,-32.67 -22.86,-39.25 19.6,-98.03 65.36,-9.81 28.25,-88.42 10.96,-110.92 -225.47,-124.17 -80.64,22.98 c 0,0 -53.98,231.32 -205.61,133.63 -169.468,-109.13 7.68,-241.6 23.07,-246.75 15.44,-5.15 43.74,10.27 43.74,10.27 l -15.41,-30.83 -133.68,-159.4 -46.297,-102.83 -71.988,-41.1 -133.66,-205.658 -107.938,-51.43 -5.152,-107.953 97.711,-46.289 51.386,77.109 -5.156,41.16 262.194,185.071 20.57,77.14 89.99,53.96 131.08,-156.8 -121.1,-276.148 645.79,0"
         style="fill:#231f20;fill-opacity:1;fill-rule:nonzero;stroke:none"
         id="path16"
         inkscape:connector-curvature="0" /><path
         d="m 1289.94,1962.03 c -12.78,-18.01 -25.07,-35.35 -37.93,-53.49 -21.44,15.24 -42.47,30.18 -64.07,45.51 13.16,18.41 25.73,36.02 38.48,53.88 -2.89,2.79 -5.71,5.45 -8.97,8.56 9,12.79 18,25.59 27.81,39.58 6.59,-9.21 12.93,-5.28 19.87,-1.01 21.01,12.93 42.38,25.3 63.34,38.29 5.09,3.14 8.84,3.47 13.61,-0.31 8.66,-6.82 17.72,-13.09 26.83,-19.76 -16.18,-22.76 -32.09,-45.19 -48.62,-68.42 87.91,-59.11 175.64,-118.07 263.44,-177.09 -13.26,-17.56 -26.34,-34.87 -40.17,-53.16 -84.53,62.45 -169.06,124.93 -253.62,187.42"
         style="fill:#231f20;fill-opacity:1;fill-rule:evenodd;stroke:none"
         id="path18"
         inkscape:connector-curvature="0" /><path
         d="m 0,101.27 90.1797,54.601 c 17.4223,-30.859 33.2343,-56.9804 71.2073,-56.9804 36.406,0 59.332,14.2384 59.332,69.6294 l 0,376.55 110.761,0 0,-378.129 C 331.48,52.2305 264.234,0 166.129,0 77.5313,0 26.1172,45.8984 0,101.27"
         style="fill:#231f20;fill-opacity:1;fill-rule:nonzero;stroke:none"
         id="path20"
         inkscape:connector-curvature="0" /><path
         d="m 561.098,447.77 -153.477,0 0,97.3 417.707,0 0,-97.3 -153.469,0 0,-440.66062 -110.761,0 0,440.66062"
         style="fill:#231f20;fill-opacity:1;fill-rule:nonzero;stroke:none"
         id="path22"
         inkscape:connector-curvature="0" /><path
         d="m 907.07,545.07 355.99,0 0,-97.3 -245.22,0 0,-170.86 215.96,0 0,-94.949 -215.96,0 0,-77.539 256.31,0 0,-97.31262 -367.08,0 0,537.96062"
         style="fill:#231f20;fill-opacity:1;fill-rule:nonzero;stroke:none"
         id="path24"
         inkscape:connector-curvature="0" /><path
         d="m 1351.12,276.102 c 0,159 122.61,275.308 276.9,275.308 97.3,0 166.93,-34.808 215.18,-109.969 l -84.65,-60.121 c -25.3,41.141 -68.83,70.399 -130.53,70.399 -97.31,0 -162.98,-75.117 -162.98,-175.617 0,-100.461 65.67,-177.2114 162.98,-177.2114 69.6,0 108.38,33.2184 138.43,79.1294 l 86.25,-59.36 C 1806,45.8984 1731.66,0 1628.02,0 c -154.29,0 -276.9,117.082 -276.9,276.102"
         style="fill:#231f20;fill-opacity:1;fill-rule:nonzero;stroke:none"
         id="path26"
         inkscape:connector-curvature="0" /><path
         d="m 1935.27,545.07 110.77,0 0,-275.269 230.19,0 0,275.269 110.77,0 0,-537.96062 -110.77,0 0,163.74962 -230.19,0 0,-163.74962 -110.77,0 0,537.96062"
         style="fill:#231f20;fill-opacity:1;fill-rule:nonzero;stroke:none"
         id="path28"
         inkscape:connector-curvature="0" /></g></g></svg>